<svg width="1920" height="208" viewBox="0 0 1920 208" fill="none" xmlns="http://www.w3.org/2000/svg">
<path d="M286 1.4999C147.555 14.9006 -7 204 -7 204C238 277.833 741.4 428.1 795 438.5C848.6 448.9 1666.33 322.167 2068.5 257.5C2068.5 257.5 1919.97 7.3005 1775 25.4999C1688.25 36.3906 1673.05 137.405 1586 145.5C1483.57 155.024 1454.24 30.7695 1351.5 25.4999C1230.27 19.2819 1192.97 171.57 1072 161.5C968.346 152.871 946.993 27.502 843 25.4999C741.881 23.5532 714.02 134.338 613.5 145.5C474.64 160.919 425.064 -11.9607 286 1.4999Z" fill="#4A87C0"/>
</svg>
